<svg width="56" height="56" viewBox="0 0 56 56" fill="none" xmlns="http://www.w3.org/2000/svg">
<rect width="56" height="56" rx="16" fill="#F5F3FE"/>
<path d="M30.4999 22.5C31.2371 22.6438 31.9689 22.9689 32.4999 23.5C33.031 24.0311 33.3561 24.7628 33.4999 25.5M30.9999 19C32.5315 19.1701 33.9096 19.9111 34.9999 21C36.0902 22.0889 36.8279 23.4687 36.9999 25M36.9994 32.4767V35.1864C37.0036 36.2223 36.0722 37.0873 35.0264 36.9929C26 37 19 29.935 19.0071 20.9692C18.9129 19.9289 19.7736 19.0011 20.8081 19.0001H23.5232C23.9625 18.9958 24.3883 19.151 24.7213 19.4368C25.6681 20.2495 26.2771 23.0078 26.0428 24.1043C25.8599 24.9604 24.9969 25.5593 24.4102 26.1448C25.6986 28.4062 27.5746 30.2785 29.8405 31.5644C30.4272 30.9788 31.0273 30.1176 31.8851 29.935C32.9855 29.7008 35.7615 30.3106 36.5709 31.264C36.8579 31.6021 37.0104 32.0337 36.9994 32.4767Z" stroke="#7E74F1" stroke-width="1.5" stroke-linecap="round" stroke-linejoin="round"/>
</svg>
