<svg width="22" height="22" viewBox="0 0 22 22" fill="none" xmlns="http://www.w3.org/2000/svg">
<path d="M16.5 7.99897C15.6047 7.99859 14.7233 8.22003 13.9345 8.6435C13.8626 8.45393 13.7346 8.29074 13.5677 8.17561C13.4008 8.06049 13.2027 7.99888 13 7.99897H8.99997C8.86863 7.9989 8.73856 8.02471 8.6172 8.07494C8.49584 8.12517 8.38557 8.19882 8.2927 8.2917C8.19982 8.38457 8.12617 8.49484 8.07594 8.6162C8.02571 8.73756 7.9999 8.86763 7.99997 8.99897V20.999C7.99989 21.1303 8.02571 21.2604 8.07594 21.3817C8.12616 21.5031 8.19982 21.6134 8.29269 21.7062C8.38557 21.7991 8.49584 21.8728 8.6172 21.923C8.73856 21.9732 8.86863 21.999 8.99997 21.999H13C13.1313 21.999 13.2614 21.9732 13.3827 21.923C13.5041 21.8728 13.6144 21.7991 13.7072 21.7062C13.8001 21.6134 13.8738 21.5031 13.924 21.3817C13.9742 21.2604 14 21.1303 14 20.999V15.499C14 15.2338 14.1053 14.9794 14.2929 14.7919C14.4804 14.6043 14.7348 14.499 15 14.499C15.2652 14.499 15.5195 14.6043 15.7071 14.7919C15.8946 14.9794 16 15.2338 16 15.499V20.999C15.9999 21.1303 16.0257 21.2604 16.0759 21.3817C16.1262 21.5031 16.1998 21.6134 16.2927 21.7062C16.3856 21.7991 16.4958 21.8728 16.6172 21.923C16.7386 21.9732 16.8686 21.999 17 21.999H21C21.1313 21.999 21.2614 21.9732 21.3827 21.923C21.5041 21.8728 21.6144 21.7991 21.7072 21.7062C21.8001 21.6134 21.8738 21.5031 21.924 21.3817C21.9742 21.2604 22 21.1303 22 20.999V13.499C21.9982 12.0408 21.4181 10.6429 20.3871 9.61189C19.356 8.58083 17.9581 8.00078 16.5 7.99897ZM20 19.999H18V15.499C18 14.7033 17.6839 13.9403 17.1213 13.3777C16.5587 12.815 15.7956 12.499 15 12.499C14.2043 12.499 13.4413 12.815 12.8786 13.3777C12.316 13.9403 12 14.7033 12 15.499V19.999H9.99997V9.99897H12V10.7021C12.0001 10.9093 12.0645 11.1114 12.1844 11.2804C12.3043 11.4494 12.4737 11.577 12.6692 11.6456C12.8647 11.7142 13.0767 11.7204 13.2759 11.6633C13.4751 11.6063 13.6517 11.4888 13.7812 11.3271C14.23 10.7571 14.8456 10.3415 15.542 10.1383C16.2384 9.93514 16.9808 9.95449 17.6657 10.1937C18.3506 10.4329 18.9436 10.88 19.3621 11.4725C19.7806 12.0651 20.0036 12.7735 20 13.499V19.999ZM5.99997 7.99897H1.99997C1.86863 7.9989 1.73856 8.02471 1.6172 8.07494C1.49584 8.12517 1.38557 8.19882 1.2927 8.2917C1.19982 8.38457 1.12617 8.49484 1.07594 8.6162C1.02571 8.73756 0.999896 8.86763 0.999971 8.99897V20.999C0.999895 21.1303 1.02571 21.2604 1.07594 21.3817C1.12616 21.5031 1.19982 21.6134 1.29269 21.7062C1.38557 21.7991 1.49584 21.8728 1.6172 21.923C1.73856 21.9732 1.86863 21.999 1.99997 21.999H5.99997C6.13131 21.999 6.26138 21.9732 6.38274 21.923C6.5041 21.8728 6.61437 21.7991 6.70725 21.7062C6.80012 21.6134 6.87378 21.5031 6.92401 21.3817C6.97423 21.2604 7.00005 21.1303 6.99997 20.999V8.99897C7.00005 8.86763 6.97423 8.73756 6.924 8.6162C6.87378 8.49484 6.80012 8.38457 6.70724 8.2917C6.61437 8.19882 6.5041 8.12517 6.38274 8.07494C6.26138 8.02471 6.13131 7.9989 5.99997 7.99897ZM4.99997 19.999H2.99997V9.99897H4.99997V19.999ZM4.01462 0.54197C3.57698 0.515774 3.13859 0.578868 2.7261 0.727415C2.31361 0.875962 1.93564 1.10686 1.61519 1.40606C1.29473 1.70527 1.03849 2.06653 0.862029 2.46787C0.685573 2.86921 0.592594 3.30226 0.588747 3.74066C0.584901 4.17907 0.670268 4.61367 0.839656 5.01805C1.00904 5.42243 1.25891 5.78813 1.57407 6.09291C1.88922 6.39769 2.26308 6.63518 2.6729 6.79095C3.08272 6.94671 3.51994 7.01748 3.95797 6.99897H3.98629C4.42509 7.02503 4.86459 6.96135 5.27795 6.81182C5.6913 6.66229 6.06983 6.43004 6.39039 6.12928C6.71096 5.82851 6.96683 5.46554 7.14238 5.06255C7.31793 4.65955 7.40946 4.225 7.41139 3.78543C7.41332 3.34586 7.3256 2.91052 7.15359 2.506C6.98159 2.10148 6.7289 1.73628 6.41099 1.43272C6.09307 1.12915 5.7166 0.893595 5.30457 0.740442C4.89255 0.58729 4.45362 0.519757 4.01461 0.54197H4.01462ZM3.9863 4.99897H3.95797C3.78504 5.01997 3.60961 5.00375 3.44346 4.9514C3.27731 4.89905 3.12427 4.81178 2.99461 4.69543C2.86495 4.57909 2.76167 4.43637 2.69168 4.27685C2.6217 4.11732 2.58664 3.94467 2.58884 3.77048C2.58884 3.02438 3.14841 2.54196 4.01462 2.54196C4.18932 2.51867 4.36698 2.53309 4.53564 2.58424C4.70429 2.6354 4.86003 2.7221 4.99236 2.83851C5.12468 2.95492 5.23053 3.09834 5.30276 3.2591C5.37499 3.41986 5.41193 3.59424 5.4111 3.77048C5.4111 4.51657 4.85153 4.99897 3.9863 4.99897Z" fill="#232E35"/>
</svg>
